<svg fill="none" height="24" viewBox="0 0 24 24" width="24" xmlns="http://www.w3.org/2000/svg"><g stroke="#141b34" stroke-width="1.5"><path d="m12.8984 13c-2.8171 1.8881-4.79091 5.0404-6.99996 8" stroke-linecap="round"/><path d="m3.776 3.5c-1.276 1.43424-1.276 3.73263-1.276 8.2454 0 4.5984 0 6.8975 1.35001 8.3261 1.35002 1.4285 3.52283 1.4285 7.86849 1.4285 4.2535 0 6.4254-.1721 7.7815-1.5117"/><g stroke-linecap="round" stroke-linejoin="round"><path d="m16.5 12.0144c1.5399-.106 3.1963.3171 4.997 1.6057m0 0c.003-.505.003-1.044.003-1.6201 0-4.47834 0-6.71751-1.3912-8.10876-1.3913-1.39124-3.6305-1.39124-8.1088-1.39124-2.40914 0-4.17028 0-5.5.21659m14.997 10.90351c-.0094 1.6066-.0488 2.8681-.2136 3.8799"/><path d="m2 2 20 20"/></g></g></svg>